<svg width="260" height="97" viewBox="0 0 260 97" fill="none" xmlns="http://www.w3.org/2000/svg">
<path d="M126.272 63.535C123.609 63.535 121.237 63.147 119.203 62.3225C117.169 61.5465 115.233 60.237 113.345 58.491C113.102 58.297 112.86 58.006 112.715 57.6665C112.57 57.327 112.473 56.9875 112.473 56.648C112.473 56.066 112.667 55.5325 113.102 55.096C113.538 54.6595 114.022 54.417 114.652 54.417C115.136 54.417 115.62 54.611 116.007 54.999C117.412 56.357 118.961 57.424 120.607 58.1515C122.253 58.879 124.093 59.2185 126.175 59.2185C127.773 59.2185 129.177 58.976 130.484 58.4425C131.743 57.9575 132.76 57.23 133.534 56.3085C134.309 55.387 134.697 54.3685 134.697 53.156C134.697 51.701 134.309 50.4885 133.486 49.567C132.663 48.6455 131.549 47.821 130.097 47.239C128.644 46.6085 126.998 46.075 125.11 45.59C123.464 45.202 121.914 44.717 120.51 44.135C119.106 43.553 117.896 42.874 116.879 42.001C115.862 41.128 115.039 40.1095 114.507 38.897C113.926 37.6845 113.683 36.2295 113.683 34.5805C113.683 32.495 114.216 30.7005 115.33 29.1485C116.395 27.5965 117.944 26.384 119.881 25.511C121.818 24.638 124.045 24.2015 126.562 24.2015C128.79 24.2015 130.872 24.541 132.857 25.2685C134.842 25.996 136.44 27.0145 137.602 28.2755C138.328 28.9545 138.667 29.6335 138.667 30.361C138.667 30.846 138.425 31.331 137.989 31.816C137.553 32.2525 137.021 32.495 136.44 32.495C136.052 32.495 135.665 32.3495 135.374 32.107C134.745 31.428 133.97 30.7975 133.002 30.264C132.034 29.7305 131.017 29.294 129.903 28.9545C128.79 28.615 127.676 28.4695 126.562 28.4695C124.916 28.4695 123.415 28.712 122.156 29.197C120.898 29.682 119.881 30.361 119.203 31.234C118.477 32.107 118.138 33.174 118.138 34.3865C118.138 35.7445 118.525 36.9085 119.348 37.7815C120.123 38.6545 121.237 39.382 122.544 39.964C123.899 40.546 125.352 41.031 126.998 41.4675C128.79 41.904 130.436 42.389 131.937 42.971C133.438 43.553 134.745 44.232 135.81 45.0565C136.875 45.881 137.747 46.948 138.328 48.2575C138.909 49.567 139.248 51.119 139.248 53.0105C139.248 54.999 138.667 56.7935 137.553 58.3455C136.44 59.8975 134.89 61.1585 132.953 62.0315C130.92 63.0985 128.693 63.535 126.272 63.535Z" fill="black"/>
<path d="M159.244 34.435C161.616 34.435 163.505 34.9685 164.909 35.987C166.313 37.0055 167.281 38.412 167.911 40.1095C168.492 41.8555 168.831 43.747 168.831 45.8325V60.7705C168.831 61.401 168.637 61.9345 168.201 62.371C167.765 62.8075 167.281 63.0015 166.652 63.0015C166.022 63.0015 165.49 62.8075 165.054 62.371C164.667 61.9345 164.473 61.401 164.473 60.7705V45.8325C164.473 44.4745 164.279 43.262 163.892 42.1465C163.505 41.031 162.827 40.1095 161.907 39.4305C160.987 38.7515 159.728 38.412 158.13 38.412C156.629 38.412 155.274 38.7515 154.063 39.4305C152.853 40.1095 151.836 40.9825 151.11 42.1465C150.384 43.262 150.045 44.523 150.045 45.8325V60.7705C150.045 61.401 149.851 61.9345 149.415 62.371C148.98 62.8075 148.495 63.0015 147.866 63.0015C147.236 63.0015 146.752 62.8075 146.317 62.371C145.881 61.9345 145.687 61.401 145.687 60.7705V24.929C145.687 24.2985 145.881 23.765 146.317 23.3285C146.752 22.892 147.236 22.698 147.866 22.698C148.495 22.698 149.028 22.892 149.464 23.3285C149.851 23.765 150.045 24.2985 150.045 24.929V41.1765L148.98 42.389C149.173 41.4675 149.561 40.4975 150.19 39.5275C150.819 38.5575 151.594 37.6845 152.514 36.957C153.434 36.181 154.499 35.599 155.661 35.114C156.726 34.629 157.937 34.435 159.244 34.435Z" fill="black"/>
<path d="M178.805 30.749C177.885 30.749 177.207 30.555 176.771 30.2155C176.335 29.876 176.142 29.294 176.142 28.518V27.742C176.142 26.966 176.384 26.4325 176.868 26.0445C177.352 25.705 178.03 25.511 178.901 25.511C179.773 25.511 180.402 25.705 180.838 26.0445C181.274 26.384 181.467 26.966 181.467 27.742V28.518C181.467 29.294 181.225 29.8275 180.79 30.2155C180.305 30.6035 179.676 30.749 178.805 30.749ZM181.032 60.7705C181.032 61.401 180.838 61.9345 180.402 62.371C179.967 62.8075 179.482 63.0015 178.853 63.0015C178.224 63.0015 177.643 62.8075 177.255 62.371C176.819 61.9345 176.626 61.401 176.626 60.7705V36.666C176.626 36.0355 176.819 35.502 177.255 35.0655C177.691 34.629 178.224 34.435 178.853 34.435C179.482 34.435 179.967 34.629 180.402 35.0655C180.838 35.502 181.032 36.0355 181.032 36.666V60.7705Z" fill="black"/>
<path d="M202.819 34.144C205.289 34.144 207.225 34.629 208.629 35.6475C210.033 36.666 211.05 38.024 211.631 39.7215C212.212 41.419 212.551 43.359 212.551 45.493V60.722C212.551 61.3525 212.358 61.886 211.922 62.3225C211.486 62.759 211.002 62.953 210.372 62.953C209.743 62.953 209.21 62.759 208.775 62.3225C208.387 61.886 208.194 61.3525 208.194 60.722V45.6385C208.194 44.2805 208 43.0195 207.564 41.904C207.128 40.7885 206.451 39.867 205.482 39.188C204.514 38.509 203.207 38.1695 201.56 38.1695C200.06 38.1695 198.655 38.509 197.397 39.188C196.138 39.867 195.121 40.74 194.346 41.904C193.572 43.0195 193.184 44.2805 193.184 45.6385V60.7705C193.184 61.401 192.991 61.9345 192.555 62.371C192.119 62.8075 191.635 63.0015 191.006 63.0015C190.376 63.0015 189.892 62.8075 189.456 62.371C189.02 61.9345 188.827 61.401 188.827 60.7705V37.1025C188.827 36.472 189.02 35.89 189.456 35.502C189.892 35.0655 190.376 34.8715 191.006 34.8715C191.635 34.8715 192.168 35.0655 192.603 35.502C192.991 35.9385 193.184 36.472 193.184 37.1025V40.934L192.119 42.1465C192.313 41.225 192.7 40.255 193.378 39.285C194.007 38.315 194.831 37.442 195.847 36.7145C196.816 35.9385 197.929 35.3565 199.091 34.8715C200.253 34.3865 201.512 34.144 202.819 34.144Z" fill="black"/>
<path d="M241.359 34.435C241.989 34.435 242.473 34.629 242.909 35.0655C243.344 35.502 243.538 36.0355 243.538 36.666V60.334C243.538 63.438 242.957 65.96 241.747 67.9485C240.536 69.937 238.939 71.4405 236.953 72.4105C234.92 73.3805 232.644 73.8655 230.127 73.8655C228.723 73.8655 227.367 73.72 226.06 73.429C224.752 73.138 223.687 72.75 222.864 72.265C222.186 71.9255 221.702 71.5375 221.412 71.0525C221.121 70.5675 221.073 70.034 221.315 69.5005C221.557 68.87 221.944 68.385 222.428 68.1425C222.912 67.9 223.445 67.9 223.978 68.1425C224.559 68.385 225.382 68.773 226.495 69.2095C227.609 69.646 228.819 69.8885 230.223 69.8885C232.112 69.8885 233.709 69.549 235.065 68.8215C236.421 68.094 237.438 67.027 238.164 65.6205C238.89 64.214 239.229 62.468 239.229 60.431V56.5995L239.81 57.909C239.277 59.073 238.503 60.0915 237.534 60.916C236.566 61.7405 235.404 62.4195 234.145 62.856C232.838 63.2925 231.482 63.535 229.981 63.535C227.899 63.535 226.108 63.0985 224.704 62.177C223.251 61.304 222.186 60.043 221.46 58.491C220.734 56.8905 220.395 55.096 220.395 53.059V36.666C220.395 36.0355 220.588 35.502 221.024 35.0655C221.46 34.629 221.944 34.435 222.574 34.435C223.203 34.435 223.736 34.629 224.171 35.0655C224.559 35.502 224.752 36.0355 224.752 36.666V52.089C224.752 54.5625 225.285 56.4055 226.398 57.6665C227.464 58.9275 229.158 59.558 231.434 59.558C232.886 59.558 234.194 59.2185 235.356 58.588C236.518 57.9575 237.438 57.036 238.164 55.872C238.89 54.708 239.229 53.447 239.229 52.089V36.666C239.229 36.0355 239.423 35.502 239.858 35.0655C240.197 34.629 240.73 34.435 241.359 34.435Z" fill="black"/>
<path d="M93.203 45.493C69.9628 38.1695 60.9572 21.5825 57.4711 10.282C56.7449 8.00251 53.5009 8.00251 52.7747 10.282C45.851 32.592 29.2439 41.807 17.8659 45.5415C15.5903 46.269 15.6387 49.5185 17.9143 50.1975C39.1695 56.5995 48.6108 74.69 52.581 86.4755C53.3557 88.8035 56.5996 88.658 57.2775 86.33C63.6685 62.7105 81.3408 53.641 93.1061 50.1975C95.4302 49.5185 95.4786 46.2205 93.203 45.493ZM68.5102 48.985C64.4432 50.1975 58.3426 53.3015 56.1155 61.498C55.8734 62.3225 54.7598 62.371 54.5177 61.5465C53.162 57.4725 49.9181 51.216 42.5587 48.985C41.784 48.7425 41.7356 47.627 42.5587 47.3845C46.4804 46.075 52.2421 42.9225 54.6145 35.211C54.8566 34.435 55.9702 34.435 56.2123 35.211C57.4227 39.091 60.5214 44.8625 68.5587 47.3845C69.3333 47.627 69.3333 48.7425 68.5102 48.985Z" fill="url(#paint0_linear_257_67)"/>
<defs>
<linearGradient id="paint0_linear_257_67" x1="23.4976" y1="33.1651" x2="94.4503" y2="67.2283" gradientUnits="userSpaceOnUse">
<stop stop-color="#5931BA"/>
<stop offset="1" stop-color="#597EBA"/>
</linearGradient>
</defs>
</svg>
