<svg width="875" height="476" viewBox="0 0 875 476" fill="none" xmlns="http://www.w3.org/2000/svg">
<g clip-path="url(#clip0_155_165)">
<path d="M440.308 476C677.571 476 869.911 463.261 869.911 447.548C869.911 431.834 677.571 419.095 440.308 419.095C203.044 419.095 10.7041 431.834 10.7041 447.548C10.7041 463.261 203.044 476 440.308 476Z" fill="#F2F2F2"/>
<path d="M423.842 136.071C353.848 136.071 303.593 180.995 303.593 285.819C303.593 404.62 353.848 436.067 423.842 436.067C493.836 436.067 547.085 401.625 547.085 285.819C547.085 162.027 493.836 136.071 423.842 136.071ZM424.302 396.633C375.822 396.633 350.495 368.18 350.495 285.896C350.495 213.292 376.859 175.005 425.339 175.005C473.818 175.005 500.183 200.155 500.183 285.896C500.182 366.106 472.781 396.633 424.302 396.633Z" fill="#2F2E41"/>
<path d="M261.68 353.206H232.741V267.952C232.741 263.423 230.943 259.081 227.742 255.879C224.541 252.677 220.2 250.878 215.674 250.878H208.893C206.652 250.878 204.432 251.32 202.362 252.178C200.291 253.036 198.41 254.293 196.825 255.879C195.24 257.464 193.983 259.346 193.125 261.418C192.268 263.489 191.826 265.709 191.826 267.952V353.206H110.197C108.518 353.206 106.867 352.772 105.405 351.946C103.943 351.119 102.719 349.929 101.852 348.49C100.986 347.051 100.505 345.413 100.458 343.733C100.411 342.054 100.798 340.391 101.583 338.906L187.978 175.321C189.055 173.281 189.708 171.044 189.897 168.746C190.086 166.447 189.808 164.133 189.079 161.945C188.349 159.757 187.185 157.739 185.654 156.014C184.124 154.288 182.26 152.891 180.175 151.906L175.075 149.496C171.115 147.626 166.588 147.349 162.43 148.725C158.271 150.1 154.801 153.022 152.736 156.886L47.3663 354.081C45.572 357.439 44.6333 361.188 44.6333 364.996C44.6333 368.036 45.2319 371.047 46.3949 373.856C47.5579 376.664 49.2626 379.217 51.4115 381.366C53.5605 383.516 56.1117 385.222 58.9194 386.385C61.7271 387.549 64.7365 388.147 67.7756 388.147H191.826V442.057C191.826 444.745 192.355 447.406 193.383 449.889C194.411 452.372 195.918 454.628 197.818 456.528C199.718 458.429 201.973 459.936 204.455 460.965C206.937 461.993 209.597 462.523 212.283 462.523H212.283C214.97 462.523 217.63 461.993 220.112 460.965C222.594 459.936 224.849 458.429 226.749 456.528C228.649 454.628 230.155 452.372 231.184 449.889C232.212 447.406 232.741 444.745 232.741 442.057V388.147H261.68C266.312 388.147 270.754 386.307 274.029 383.03C277.304 379.754 279.144 375.31 279.144 370.677C279.144 366.043 277.304 361.6 274.029 358.323C270.754 355.047 266.312 353.206 261.68 353.206Z" fill="#5843E4"/>
<path d="M797.562 353.206H768.623V267.952C768.623 263.423 766.824 259.081 763.624 255.879C760.423 252.677 756.082 250.878 751.556 250.878H744.775C742.533 250.878 740.314 251.32 738.244 252.178C736.173 253.036 734.291 254.293 732.707 255.879C731.122 257.464 729.865 259.346 729.007 261.418C728.149 263.489 727.708 265.709 727.708 267.952V353.206H646.079C644.4 353.206 642.749 352.772 641.287 351.946C639.825 351.119 638.601 349.929 637.734 348.49C636.867 347.051 636.387 345.413 636.34 343.733C636.293 342.054 636.68 340.391 637.465 338.906L723.86 175.321C724.937 173.281 725.59 171.045 725.779 168.746C725.968 166.447 725.689 164.133 724.96 161.945C724.231 159.757 723.066 157.739 721.536 156.014C720.006 154.288 718.142 152.891 716.057 151.906L710.957 149.496C706.997 147.626 702.469 147.349 698.311 148.725C694.153 150.1 690.683 153.022 688.618 156.886L583.248 354.081C581.454 357.439 580.515 361.188 580.515 364.996C580.515 371.136 582.953 377.025 587.293 381.366C591.633 385.708 597.52 388.147 603.657 388.147H727.708V442.057C727.708 447.485 729.863 452.69 733.7 456.528C737.536 460.366 742.74 462.523 748.165 462.523C753.591 462.523 758.794 460.366 762.631 456.528C766.467 452.69 768.622 447.485 768.622 442.057V388.147H797.562C802.194 388.147 806.636 386.307 809.911 383.03C813.186 379.754 815.026 375.31 815.026 370.677C815.026 366.043 813.186 361.6 809.911 358.323C806.636 355.047 802.194 353.206 797.562 353.206Z" fill="#5843E4"/>
<path d="M269.664 343.223H240.724V257.968C240.724 255.726 240.283 253.506 239.425 251.435C238.567 249.363 237.31 247.481 235.725 245.896C234.141 244.31 232.259 243.052 230.189 242.194C228.118 241.336 225.899 240.895 223.657 240.895H216.876C212.35 240.895 208.009 242.694 204.808 245.896C201.608 249.097 199.81 253.44 199.81 257.968V343.223H118.181C116.501 343.223 114.851 342.789 113.389 341.962C111.926 341.136 110.703 339.946 109.836 338.507C108.969 337.068 108.489 335.429 108.442 333.75C108.394 332.071 108.782 330.408 109.566 328.923L195.961 165.338C197.038 163.298 197.691 161.061 197.88 158.762C198.07 156.464 197.791 154.15 197.062 151.962C196.333 149.774 195.168 147.756 193.638 146.03C192.108 144.305 190.244 142.908 188.159 141.923L183.059 139.513C179.099 137.642 174.571 137.366 170.413 138.742C166.255 140.117 162.784 143.039 160.72 146.903L55.3497 344.098C53.5554 347.456 52.6167 351.205 52.6167 355.013V355.013C52.6167 361.153 55.0549 367.042 59.3949 371.383C63.7349 375.725 69.6212 378.164 75.759 378.164H199.81V432.074C199.81 434.761 200.339 437.423 201.367 439.906C202.395 442.389 203.902 444.645 205.801 446.545C207.701 448.446 209.956 449.953 212.438 450.982C214.92 452.01 217.58 452.539 220.267 452.539H220.267C225.692 452.539 230.896 450.383 234.732 446.545C238.569 442.707 240.724 437.502 240.724 432.074V378.164H269.664C271.957 378.164 274.228 377.712 276.347 376.834C278.466 375.956 280.391 374.67 282.012 373.047C283.634 371.425 284.92 369.499 285.798 367.379C286.676 365.26 287.127 362.988 287.127 360.694V360.694C287.127 358.399 286.676 356.128 285.798 354.008C284.92 351.888 283.634 349.962 282.012 348.34C280.391 346.718 278.466 345.431 276.347 344.553C274.228 343.675 271.957 343.223 269.664 343.223V343.223Z" stroke="#3F3D56" stroke-miterlimit="10"/>
<path d="M812.531 343.223H783.591V257.968C783.591 253.44 781.793 249.097 778.593 245.896C775.392 242.694 771.051 240.895 766.525 240.895H759.743C757.502 240.895 755.283 241.336 753.212 242.194C751.142 243.052 749.26 244.31 747.675 245.896C746.091 247.481 744.834 249.363 743.976 251.435C743.118 253.506 742.677 255.726 742.677 257.968V343.223H661.048C659.369 343.223 657.718 342.789 656.256 341.962C654.794 341.136 653.57 339.946 652.703 338.507C651.836 337.068 651.356 335.429 651.309 333.75C651.261 332.071 651.649 330.408 652.433 328.923L738.828 165.338C739.905 163.298 740.558 161.061 740.748 158.762C740.937 156.464 740.658 154.15 739.929 151.962C739.2 149.774 738.035 147.756 736.505 146.03C734.975 144.305 733.111 142.908 731.026 141.923L725.926 139.513C721.966 137.642 717.438 137.366 713.28 138.742C709.122 140.117 705.652 143.039 703.587 146.903L598.217 344.098C596.423 347.456 595.484 351.205 595.484 355.013C595.484 361.153 597.922 367.042 602.262 371.383C606.602 375.725 612.488 378.164 618.626 378.164H742.677V432.074C742.677 437.502 744.832 442.707 748.668 446.545C752.505 450.383 757.708 452.539 763.134 452.539V452.539C768.56 452.539 773.763 450.383 777.599 446.545C781.436 442.707 783.591 437.502 783.591 432.074V378.164H812.531C814.824 378.164 817.095 377.712 819.214 376.834C821.333 375.956 823.258 374.67 824.879 373.047C826.501 371.425 827.787 369.499 828.665 367.379C829.543 365.26 829.994 362.988 829.994 360.694V360.694C829.994 356.06 828.155 351.616 824.88 348.34C821.605 345.064 817.163 343.223 812.531 343.223V343.223Z" stroke="#3F3D56" stroke-miterlimit="10"/>
<path d="M439.809 127.086C369.815 127.086 319.56 172.01 319.56 276.834C319.56 395.635 369.815 427.082 439.809 427.082C509.803 427.082 563.052 392.64 563.052 276.834C563.052 153.042 509.803 127.086 439.809 127.086ZM440.269 387.648C391.789 387.648 366.462 359.195 366.462 276.911C366.462 204.308 392.826 166.02 441.306 166.02C489.785 166.02 516.15 191.17 516.15 276.911C516.149 357.121 488.748 387.648 440.269 387.648V387.648Z" stroke="#3F3D56" stroke-miterlimit="10"/>
<path d="M383.704 25.3808C389.507 25.3808 394.211 20.6748 394.211 14.8696C394.211 9.06442 389.507 4.3584 383.704 4.3584C377.901 4.3584 373.197 9.06442 373.197 14.8696C373.197 20.6748 377.901 25.3808 383.704 25.3808Z" fill="#2F2E41"/>
<path d="M409.33 76.3984C425.607 76.3984 438.801 59.296 438.801 38.1992C438.801 17.1024 425.607 0 409.33 0C393.054 0 379.86 17.1024 379.86 38.1992C379.86 59.296 393.054 76.3984 409.33 76.3984Z" fill="#2F2E41"/>
<path opacity="0.1" d="M409.33 64.8618C394.567 64.8618 382.34 50.7907 380.194 32.4309C379.971 34.3456 379.859 36.2716 379.86 38.1992C379.86 59.2961 393.054 76.3984 409.33 76.3984C425.607 76.3984 438.801 59.2961 438.801 38.1992C438.802 36.2716 438.69 34.3456 438.467 32.4309C436.321 50.7907 424.094 64.8618 409.33 64.8618Z" fill="black"/>
<path d="M469.3 150.067C468.667 152.669 465.938 154.753 462.916 156.208C456.562 159.269 448.724 160.183 441.122 160.489C439.183 160.607 437.237 160.571 435.304 160.382C431.556 160.019 428.041 158.403 425.327 155.794C425.133 155.667 424.974 155.494 424.865 155.289C424.757 155.085 424.702 154.857 424.705 154.625C424.709 154.394 424.771 154.167 424.886 153.966C425.001 153.765 425.165 153.597 425.362 153.477C429.409 149.029 436.163 146.302 442.967 144.338C448.125 142.849 457.122 138.993 462.749 139.513C468.199 140.017 470.099 146.782 469.3 150.067Z" fill="#3F3D56"/>
<path opacity="0.1" d="M469.3 150.067C468.667 152.669 465.938 154.753 462.916 156.208C456.562 159.269 448.724 160.183 441.122 160.489C439.183 160.607 437.237 160.571 435.304 160.382C431.556 160.019 428.041 158.403 425.327 155.794C425.133 155.667 424.974 155.494 424.865 155.289C424.757 155.085 424.702 154.857 424.705 154.625C424.709 154.394 424.771 154.167 424.886 153.966C425.001 153.765 425.165 153.597 425.362 153.477C429.409 149.029 436.163 146.302 442.967 144.338C448.125 142.849 457.122 138.993 462.749 139.513C468.199 140.017 470.099 146.782 469.3 150.067Z" fill="black"/>
<path d="M388.511 130.621C386.572 134.424 386.221 138.842 387.535 142.903C388.872 146.934 391.375 150.478 394.726 153.085C402.947 159.678 414.262 160.585 424.798 160.493C434.032 160.413 443.252 159.781 452.411 158.6C455.48 158.328 458.496 157.627 461.371 156.519C464.809 155.03 467.831 152.3 469.055 148.758C470.28 145.215 469.411 140.877 466.503 138.513C463.948 136.436 460.425 136.15 457.139 135.952L438.336 134.822C440.194 132.941 442.668 131.877 444.93 130.51C447.931 128.696 449.925 125.65 452.107 122.905C455.47 118.884 459.128 115.121 463.052 111.647C463.664 115.159 465.885 118.043 468.498 120.466C471.112 122.889 474.124 124.84 476.841 127.147C483.42 132.735 488.158 140.319 495.077 145.479C499.837 144.228 504.287 142.005 508.148 138.951L505.458 134.078C505.234 133.576 504.885 133.141 504.445 132.813C503.684 132.344 502.702 132.586 501.818 132.453C499.456 132.099 498.424 129.37 497.497 127.168C494.952 121.121 490.079 116.429 485.918 111.358C482.846 107.615 480.121 103.6 477.777 99.3631C476.379 96.836 475.099 94.2049 473.202 92.0277C471.305 89.8506 468.647 88.1389 465.76 88.1328C463.209 88.1274 460.856 89.423 458.663 90.7262C451.983 94.6957 445.555 99.0763 439.418 103.843C436.206 106.337 433.014 108.973 429.246 110.502C427.66 111.146 425.988 111.587 424.466 112.37C421.801 113.742 419.778 116.064 417.6 118.126C409.832 125.477 399.198 130.24 388.511 130.621Z" fill="#3F3D56"/>
<path d="M427.828 78.2955C427.74 80.5427 427.263 82.7575 426.416 84.8407C425.986 85.8796 425.348 86.819 424.54 87.6002C423.731 88.3813 422.771 88.9875 421.718 89.381C420.224 89.7816 418.657 89.8325 417.139 89.5297C415.816 89.3914 414.54 88.9568 413.408 88.2581C411.645 87.0454 410.766 84.8817 410.445 82.764C410.125 80.649 410.268 78.4878 410.063 76.3574C409.864 74.6366 409.536 72.933 409.084 71.2607C408.946 70.7044 408.805 70.1507 408.667 69.5969C408.531 69.0431 408.398 68.4894 408.275 67.9356C408.162 67.4152 408.057 66.8922 407.967 66.3666C407.893 65.9231 407.826 65.477 407.777 65.0284C407.733 63.6983 407.511 62.3801 407.119 61.1085C406.751 60.2837 406.29 59.5036 405.745 58.7832C405.512 58.4499 405.287 58.1166 405.079 57.7705C404.479 56.8711 404.2 55.7951 404.287 54.7172C404.312 54.5505 404.352 54.3866 404.408 54.2275C404.428 54.166 404.451 54.1045 404.477 54.0455C404.707 53.9829 404.919 53.8649 405.094 53.7018C405.268 53.5387 405.401 53.3355 405.479 53.1097C405.567 52.6247 405.525 52.125 405.358 51.6612C405.167 51.0131 404.905 50.3881 404.577 49.7974C404.362 49.4077 403.631 48.7052 403.626 48.2591C403.616 47.3618 405.369 46.6389 406.079 46.2851C408.245 45.1996 410.661 44.7095 413.08 44.8648C414.63 44.9699 416.311 45.4467 417.167 46.7465C417.936 47.9181 417.833 49.4359 418.161 50.7972C418.196 50.9951 418.28 51.1811 418.405 51.3381C418.572 51.4906 418.783 51.5873 419.007 51.615C419.387 51.6906 419.776 51.7061 420.16 51.6612H420.163C420.264 51.6531 420.365 51.6385 420.465 51.6176C421.064 51.5071 421.63 51.2625 422.121 50.9023C422.439 50.8177 422.759 50.7485 423.082 50.6946C423.095 50.6933 423.108 50.6907 423.12 50.6869C424.404 54.7402 424.571 59.0856 425.621 63.2132C426.142 65.2667 426.887 67.2946 426.992 69.4071C427 69.4994 427.003 69.5943 427.005 69.6891C427.021 70.3685 426.967 71.053 426.995 71.7298C427.005 72.0346 427.039 72.3381 427.097 72.6374C427.212 73.1187 427.355 73.593 427.525 74.0577L427.533 74.0807C427.582 74.2294 427.628 74.3807 427.666 74.532C427.694 74.6422 427.72 74.7499 427.741 74.8601L427.743 74.8678C427.933 76.0007 427.961 77.1547 427.828 78.2955Z" fill="#FBBEBE"/>
<path d="M409.843 51.7869C418.194 51.7869 424.963 45.0148 424.963 36.661C424.963 28.3072 418.194 21.5352 409.843 21.5352C401.493 21.5352 394.724 28.3072 394.724 36.661C394.724 45.0148 401.493 51.7869 409.843 51.7869Z" fill="#FBBEBE"/>
<path d="M505.835 119.074C505.397 114.947 503.931 110.996 501.571 107.583C501.963 109.916 502.356 112.248 502.75 114.58C502.26 114.721 501.74 114.717 501.253 114.567C500.766 114.417 500.333 114.128 500.008 113.736C499.371 112.941 498.884 112.037 498.57 111.067C496.852 106.801 494.606 102.768 491.884 99.0614C482.259 98.259 472.743 94.2673 464.279 89.6142C455.812 84.9636 447.888 79.3875 439.534 74.5396C438.086 73.6637 436.577 72.8926 435.019 72.2322C432.405 71.1836 429.47 70.6402 426.992 69.407C426.826 69.325 426.659 69.2378 426.495 69.1481C425.935 68.8435 425.405 68.4873 424.912 68.0841C424.645 67.8674 424.391 67.6345 424.153 67.3868C422.917 65.9478 421.936 64.3071 421.255 62.5363C419.925 59.5932 419.45 56.0424 418.123 53.0993C418.733 52.5289 419.419 52.0449 420.16 51.6611H420.163C420.271 51.6047 420.378 51.5508 420.488 51.4996C421.014 51.2521 421.56 51.0522 422.121 50.9022C422.439 50.8176 422.759 50.7484 423.082 50.6945C423.095 50.6932 423.108 50.6906 423.12 50.6868C424.618 50.4428 426.152 50.5642 427.592 51.0406C429.699 51.7534 431.474 53.1762 433.245 54.5222C436.122 56.5497 438.881 58.7392 441.51 61.0801C442.971 62.4798 444.303 64.0181 445.874 65.2897C447.179 66.2976 448.556 67.2101 449.992 68.0201C458.493 73.0859 466.994 78.1509 475.496 83.2151C478.374 84.9302 481.254 86.6454 484.068 88.4605C488.342 91.219 492.463 94.2083 496.581 97.195C499.008 98.9537 501.434 100.713 503.859 102.474C504.655 102.981 505.354 103.627 505.922 104.381C506.425 105.237 506.737 106.191 506.837 107.178C507.446 111.167 507.103 115.243 505.835 119.074Z" fill="#FBBEBE"/>
<path d="M431.577 89.6705C430.557 94.2467 425.934 97.013 423.517 101.033C420.514 106.022 421.739 111.821 422.866 117.535C420.806 119.312 418.745 121.089 416.683 122.865C415.545 123.842 414.407 124.824 413.182 125.688C411.396 126.885 409.529 127.958 407.595 128.898C405.771 129.836 403.946 130.775 402.122 131.715C400.425 132.669 398.628 133.431 396.763 133.987C393.168 134.91 389.349 134.264 385.792 133.195C385.373 133.084 384.97 132.92 384.593 132.705C384.371 132.572 384.178 132.397 384.024 132.19C383.673 131.561 383.546 130.831 383.663 130.121C384.024 124.132 385.487 118.269 386.946 112.449C387.725 108.958 388.773 105.532 390.08 102.202C391.362 99.3487 392.835 96.5855 394.49 93.9314C396.317 90.592 398.481 87.4487 400.948 84.5508C402.149 83.4355 403.16 82.1313 403.941 80.6899C404.851 78.6133 404.5 76.2316 404.684 73.9704C404.825 72.2715 405.276 70.6128 406.014 69.0763V69.0737C406.409 68.2461 406.885 67.4595 407.434 66.7254C407.683 67.3048 407.931 67.8833 408.18 68.461C408.344 68.8404 408.506 69.219 408.667 69.5968C408.877 70.0839 409.085 70.5693 409.292 71.053C409.889 72.4425 410.485 73.8312 411.081 75.219C411.724 76.967 412.641 78.6016 413.797 80.0618C414.326 80.8095 415.039 81.4074 415.867 81.7969C416.696 82.1865 417.611 82.3545 418.523 82.2845C419.436 82.2145 420.315 81.9089 421.074 81.3976C421.834 80.8862 422.448 80.1866 422.856 79.367C423.717 77.8372 424.341 76.1853 424.706 74.4678C425.212 72.3766 425.282 70.2036 424.911 68.0842C424.294 64.0028 422.559 59.8342 421.298 56.0425C420.785 54.7782 420.488 53.4367 420.419 52.0739C420.422 51.9207 420.437 51.7681 420.465 51.6175C420.473 51.5791 420.48 51.538 420.488 51.4996C421.013 51.2521 421.56 51.0522 422.121 50.9022C422.438 50.8176 422.759 50.7484 423.082 50.6946C424.191 56.7039 425.303 62.7132 426.416 68.7225C426.441 68.8636 426.469 69.0045 426.495 69.1481C426.654 70.0095 426.815 70.8709 426.995 71.7298C427.156 72.5091 427.33 73.2859 427.525 74.0576L427.533 74.0807C427.6 74.3422 427.669 74.6011 427.741 74.8601L427.743 74.8677C427.94 75.5753 428.161 76.2778 428.409 76.97C429.916 81.1411 432.543 85.3404 431.577 89.6705Z" fill="#5843E4"/>
<path d="M492.938 153.981C492.891 154.863 493.062 155.742 493.435 156.542C494.382 158.272 496.652 158.665 498.617 158.827C510.094 159.771 521.64 159.419 533.039 157.778C533.657 157.736 534.257 157.549 534.791 157.234C536.411 156.097 535.412 153.327 533.643 152.44C531.873 151.554 529.773 151.767 527.832 151.383C525.903 150.898 524.066 150.101 522.393 149.024C518.455 146.76 514.575 144.401 510.753 141.945C508.477 140.483 505.791 138.922 503.228 139.789C496.285 142.139 492.893 146.488 492.938 153.981Z" fill="#3F3D56"/>
<path d="M408.334 67.6152V67.6178C408.316 67.7254 408.298 67.8305 408.275 67.9357C408.247 68.11 408.213 68.2869 408.18 68.4612C407.862 70.0891 407.473 71.7094 407.024 73.3194C405.794 77.7674 404.147 82.1437 402.512 86.4558C398.124 98.0181 393.736 109.581 389.347 121.145C388.24 124.058 387.136 126.973 385.877 129.826C385.457 130.777 385.024 131.736 384.593 132.705C383.051 136.174 381.57 139.755 381.077 143.447C380.619 145.877 380.566 148.365 380.921 150.812C381.413 153.233 382.882 155.596 385.18 156.491C386.303 156.929 387.909 157.517 387.602 158.683C387.435 159.324 386.708 159.637 386.054 159.744C385.191 159.882 384.309 159.828 383.469 159.586C382.629 159.344 381.853 158.92 381.195 158.345C379.968 157.255 379.025 155.56 377.392 155.378C376.262 155.255 375.222 155.932 374.186 156.406C369.963 158.337 365.043 156.986 360.607 155.614C360.955 153.817 362.76 152.633 364.551 152.274C366.342 151.912 368.195 152.169 370.022 152.12C370.607 152.151 371.188 152.002 371.685 151.692C372.131 151.282 372.444 150.748 372.582 150.159C373.759 146.67 374.635 143.086 375.199 139.448C375.788 135.646 376.034 131.785 376.875 128.029C377.528 125.099 378.538 122.261 379.404 119.384C381.079 113.462 382.454 107.458 383.525 101.397C384.066 98.8789 384.454 96.3302 384.686 93.7649C384.832 91.6371 384.763 89.4989 384.968 87.3787C385.312 84.6204 385.887 81.8958 386.687 79.2339C387.471 76.3292 388.255 73.4262 389.037 70.525C390.198 66.2308 391.443 61.7699 394.385 58.432C395.407 57.2569 396.659 56.3042 398.064 55.633C399.469 54.9618 400.997 54.5864 402.553 54.53C403.136 54.5293 403.718 54.5921 404.287 54.7172C404.382 54.7402 404.477 54.7633 404.572 54.7889C405.193 54.9514 405.789 55.1981 406.343 55.5222C407.25 54.9453 407.711 55.1479 408.313 56.0375C408.841 56.979 409.09 58.0514 409.031 59.1293C409.082 61.9741 408.848 64.8169 408.334 67.6152Z" fill="#FBBEBE"/>
<path d="M409.33 71.0147L409.292 71.0532L409.084 71.2608L407.024 73.3195L406.014 69.0765L402.552 54.5301C403.136 54.5293 403.717 54.5921 404.287 54.7172C404.312 54.5506 404.352 54.3866 404.408 54.2275L404.572 54.789L405.745 58.7832L407.967 66.3667L408.334 67.6152V67.6178L409.33 71.0147Z" fill="#5843E4"/>
<path d="M422.405 24.6075C422.403 25.9545 422.136 27.2879 421.619 28.5315C421.102 29.7751 420.345 30.9046 419.391 31.8554C419.046 32.2014 418.676 32.5218 418.284 32.8138C416.515 34.1475 414.361 34.8693 412.146 34.8703H399.852C397.135 34.8662 394.531 33.7836 392.612 31.8603C390.692 29.9371 389.614 27.3303 389.614 24.6125C389.614 21.8947 390.692 19.288 392.612 17.3648C394.531 15.4415 397.135 14.3589 399.852 14.3547H412.146C414.863 14.3618 417.467 15.444 419.389 17.3649C421.311 19.2859 422.395 21.8896 422.405 24.6075Z" fill="#2F2E41"/>
<path d="M433.932 25.3808C439.735 25.3808 444.439 20.6748 444.439 14.8696C444.439 9.06442 439.735 4.3584 433.932 4.3584C428.129 4.3584 423.425 9.06442 423.425 14.8696C423.425 20.6748 428.129 25.3808 433.932 25.3808Z" fill="#2F2E41"/>
<path opacity="0.1" d="M433.676 4.3584C433.547 4.3584 433.419 4.36352 433.292 4.36812C436.009 4.46697 438.583 5.61665 440.471 7.57525C442.359 9.53385 443.414 12.1487 443.414 14.8696C443.414 17.5905 442.359 20.2053 440.471 22.1639C438.583 24.1225 436.009 25.2722 433.292 25.371C433.419 25.3756 433.547 25.3808 433.676 25.3808C436.462 25.3808 439.135 24.2733 441.105 22.3021C443.076 20.3309 444.183 17.6573 444.183 14.8696C444.183 12.0819 443.076 9.40829 441.105 7.43706C439.135 5.46583 436.462 4.3584 433.676 4.3584Z" fill="black"/>
<path opacity="0.1" d="M383.704 4.3584C383.833 4.3584 383.96 4.36352 384.088 4.36812C381.37 4.46697 378.796 5.61665 376.908 7.57525C375.021 9.53385 373.966 12.1487 373.966 14.8696C373.966 17.5905 375.021 20.2053 376.908 22.1639C378.796 24.1225 381.37 25.2722 384.088 25.371C383.96 25.3756 383.833 25.3808 383.704 25.3808C380.919 25.3783 378.249 24.2698 376.28 22.2988C374.312 20.3279 373.206 17.6557 373.206 14.8696C373.206 12.0835 374.312 9.41129 376.28 7.44033C378.249 5.46936 380.919 4.36085 383.704 4.3584Z" fill="black"/>
<path opacity="0.1" d="M418.284 32.814C416.515 34.1476 414.361 34.8695 412.146 34.8705H399.852C397.637 34.8695 395.483 34.1476 393.715 32.814H418.284Z" fill="black"/>
<path d="M497.677 108.977C497.677 108.977 500.325 116.613 502.75 114.58L500.817 104.599L497.677 108.977Z" fill="#FBBEBE"/>
<path d="M820.004 341.827C822.471 342.724 825.113 343.036 827.721 342.737C830.329 342.439 832.832 341.539 835.033 340.107C837.234 338.676 839.073 336.753 840.404 334.49C841.735 332.226 842.523 329.684 842.705 327.065C842.887 324.445 842.458 321.819 841.452 319.393C840.446 316.967 838.891 314.808 836.909 313.086C834.927 311.365 832.572 310.127 830.03 309.471C827.488 308.815 824.829 308.758 822.262 309.306L822.686 318.033L818.558 310.554C814.507 312.458 811.378 315.893 809.857 320.105C809.317 321.58 808.989 323.124 808.882 324.692C808.622 328.369 809.567 332.031 811.574 335.123C813.581 338.215 816.54 340.569 820.004 341.827Z" fill="#57B894"/>
<path d="M840.427 443.053C838.97 435.631 845.284 429.05 851.521 424.773C857.757 420.496 865.044 416.294 867.172 409.035C870.23 398.603 861.121 389.049 854.031 380.811C848.771 374.697 844.253 367.981 840.574 360.803C839.099 357.925 837.743 354.916 837.355 351.705C836.796 347.081 838.281 342.48 839.777 338.069C844.761 323.375 850.089 308.805 855.763 294.358" stroke="#3F3D56" stroke-miterlimit="10"/>
<path d="M820.702 339.579C823.169 340.477 825.811 340.788 828.419 340.49C831.027 340.192 833.53 339.291 835.731 337.86C837.932 336.429 839.77 334.506 841.102 332.243C842.433 329.979 843.221 327.437 843.402 324.818C843.584 322.198 843.155 319.571 842.149 317.146C841.144 314.72 839.588 312.561 837.606 310.839C835.624 309.118 833.27 307.88 830.728 307.224C828.186 306.568 825.527 306.511 822.959 307.059L823.383 315.786L819.256 308.307C815.205 310.211 812.075 313.646 810.555 317.858C810.015 319.333 809.687 320.877 809.58 322.445C809.319 326.122 810.264 329.784 812.271 332.876C814.278 335.968 817.238 338.322 820.702 339.579V339.579Z" stroke="#3F3D56" stroke-miterlimit="10"/>
<path d="M838.356 291.344C839.324 288.671 840.949 286.285 843.081 284.406C845.213 282.527 847.784 281.215 850.556 280.591L851.951 288.888L854.539 280.174C858.131 280.227 861.614 281.421 864.484 283.584C867.354 285.746 869.462 288.765 870.505 292.205C871.548 295.644 871.472 299.326 870.287 302.719C869.102 306.113 866.869 309.041 863.912 311.082C860.955 313.124 857.425 314.172 853.834 314.076C850.242 313.979 846.774 312.744 843.93 310.547C841.086 308.351 839.014 305.307 838.012 301.855C837.01 298.403 837.13 294.722 838.356 291.344H838.356Z" fill="#57B894"/>
<path d="M839.286 288.348C840.255 285.675 841.88 283.289 844.012 281.41C846.144 279.531 848.714 278.219 851.486 277.595L852.882 285.892L855.469 277.178C859.062 277.231 862.544 278.425 865.414 280.588C868.284 282.75 870.393 285.769 871.436 289.208C872.479 292.648 872.403 296.33 871.217 299.723C870.032 303.116 867.8 306.045 864.843 308.086C861.885 310.127 858.356 311.176 854.764 311.08C851.173 310.983 847.705 309.748 844.861 307.551C842.017 305.355 839.944 302.311 838.942 298.859C837.94 295.407 838.061 291.726 839.286 288.348H839.286Z" stroke="#3F3D56" stroke-miterlimit="10"/>
<path d="M851.056 380.979C854.968 382.399 859.266 382.328 863.13 380.782C866.995 379.235 870.155 376.32 872.009 372.592C873.862 368.864 874.28 364.584 873.183 360.568C872.085 356.552 869.548 353.08 866.056 350.815L864.068 357.511L862.658 349.116C862.644 349.11 862.63 349.104 862.615 349.1C860.522 348.339 858.3 347.998 856.076 348.097C853.852 348.195 851.668 348.731 849.651 349.674C847.634 350.617 845.822 351.949 844.319 353.592C842.817 355.236 841.652 357.16 840.893 359.254C840.134 361.348 839.794 363.571 839.894 365.796C839.994 368.021 840.531 370.205 841.475 372.223C842.418 374.24 843.75 376.052 845.394 377.554C847.038 379.057 848.962 380.22 851.056 380.979H851.056Z" fill="#57B894"/>
<path d="M851.862 377.944C855.774 379.364 860.072 379.294 863.936 377.747C867.801 376.2 870.961 373.285 872.815 369.558C874.669 365.83 875.086 361.55 873.989 357.534C872.891 353.517 870.354 350.046 866.862 347.78L864.874 354.477L863.464 346.082C863.451 346.075 863.436 346.07 863.421 346.065C861.329 345.304 859.107 344.963 856.882 345.062C854.658 345.161 852.474 345.697 850.457 346.64C848.44 347.583 846.628 348.914 845.125 350.558C843.623 352.201 842.458 354.125 841.699 356.219C840.94 358.313 840.6 360.536 840.7 362.761C840.8 364.987 841.337 367.171 842.281 369.188C843.225 371.206 844.557 373.017 846.2 374.52C847.844 376.022 849.768 377.186 851.862 377.944H851.862Z" stroke="#3F3D56" stroke-miterlimit="10"/>
<path d="M833.409 409.139C834.082 412.968 836.051 416.45 838.985 419C841.919 421.549 845.64 423.012 849.524 423.143C853.409 423.274 857.22 422.065 860.319 419.718C863.418 417.372 865.616 414.03 866.545 410.255C867.473 406.479 867.076 402.499 865.42 398.982C863.763 395.465 860.948 392.624 857.447 390.937C853.945 389.249 849.97 388.817 846.189 389.714C842.407 390.61 839.048 392.781 836.676 395.86L844.227 407.231L833.909 401.196C833.109 403.765 832.937 406.489 833.409 409.139Z" fill="#57B894"/>
<path d="M834.108 406.892C834.78 410.721 836.749 414.203 839.683 416.752C842.617 419.302 846.338 420.765 850.223 420.896C854.107 421.027 857.918 419.818 861.017 417.471C864.116 415.125 866.314 411.783 867.243 408.008C868.171 404.232 867.774 400.252 866.118 396.735C864.461 393.218 861.646 390.377 858.145 388.69C854.643 387.002 850.668 386.57 846.887 387.467C843.105 388.363 839.746 390.534 837.374 393.613L844.926 404.984L834.607 398.949C833.807 401.518 833.636 404.242 834.108 406.892V406.892Z" stroke="#3F3D56" stroke-miterlimit="10"/>
<path d="M7.33569 383.133C8.95662 383.723 10.6923 383.928 12.4058 383.732C14.1194 383.536 15.764 382.944 17.21 382.004C18.6561 381.063 19.8641 379.8 20.7388 378.313C21.6134 376.826 22.1309 375.156 22.2504 373.435C22.3699 371.713 22.0881 369.988 21.4272 368.394C20.7664 366.8 19.7446 365.382 18.4423 364.251C17.14 363.119 15.5929 362.306 13.9229 361.875C12.2528 361.444 10.5056 361.407 8.81874 361.767L9.09749 367.501L6.38559 362.587C3.72403 363.838 1.66785 366.095 0.668928 368.862C0.314168 369.831 0.0984996 370.846 0.028358 371.875C-0.142818 374.292 0.477936 376.698 1.79655 378.729C3.11516 380.761 5.05977 382.307 7.33569 383.133Z" fill="#57B894"/>
<path d="M20.7542 449.641C19.7969 444.765 23.9451 440.441 28.0425 437.631C32.14 434.821 36.9276 432.06 38.3256 427.291C40.3349 420.437 34.3499 414.16 29.6917 408.747C26.2357 404.73 23.2678 400.317 20.8502 395.601C19.7991 393.749 19.0832 391.725 18.7354 389.624C18.3681 386.586 19.3438 383.563 20.3267 380.665C23.6012 371.011 27.1021 361.438 30.8296 351.946" stroke="#3F3D56" stroke-miterlimit="10"/>
<path d="M7.7942 381.657C9.41512 382.246 11.1508 382.451 12.8643 382.255C14.5778 382.059 16.2225 381.468 17.6685 380.527C19.1146 379.587 20.3226 378.324 21.1972 376.836C22.0719 375.349 22.5894 373.679 22.7088 371.958C22.8283 370.237 22.5465 368.511 21.8857 366.918C21.2249 365.324 20.203 363.906 18.9008 362.774C17.5985 361.643 16.0514 360.83 14.3814 360.399C12.7113 359.968 10.9641 359.931 9.27724 360.29L9.55599 366.025L6.84409 361.11C4.18252 362.361 2.12635 364.618 1.12742 367.385C0.772668 368.355 0.557003 369.369 0.486858 370.399C0.31567 372.815 0.93642 375.221 2.25504 377.253C3.57365 379.284 5.51826 380.83 7.7942 381.657V381.657Z" stroke="#3F3D56" stroke-miterlimit="10"/>
<path d="M19.3934 349.965C20.0295 348.209 21.0971 346.642 22.4979 345.407C23.8987 344.173 25.5876 343.311 27.4089 342.9L28.3258 348.352L30.0258 342.626C32.3861 342.661 34.6743 343.446 36.5598 344.867C38.4454 346.288 39.8309 348.271 40.5162 350.531C41.2015 352.791 41.1512 355.21 40.3726 357.439C39.5939 359.669 38.1272 361.593 36.1842 362.934C34.2412 364.275 31.9225 364.964 29.5627 364.9C27.203 364.837 24.9244 364.026 23.0559 362.582C21.1874 361.139 19.8257 359.139 19.1674 356.871C18.509 354.604 18.5882 352.185 19.3934 349.965Z" fill="#57B894"/>
<path d="M20.0047 347.997C20.6408 346.241 21.7085 344.673 23.1092 343.439C24.51 342.204 26.1989 341.342 28.0202 340.932L28.9372 346.383L30.6371 340.658C32.9975 340.693 35.2856 341.477 37.1712 342.898C39.0567 344.319 40.4422 346.303 41.1275 348.562C41.8128 350.822 41.7625 353.241 40.9839 355.471C40.2052 357.7 38.7385 359.624 36.7955 360.965C34.8525 362.307 32.5338 362.995 30.174 362.932C27.8143 362.869 25.5357 362.057 23.6672 360.614C21.7987 359.171 20.437 357.171 19.7787 354.903C19.1204 352.635 19.1995 350.217 20.0047 347.997V347.997Z" stroke="#3F3D56" stroke-miterlimit="10"/>
<path d="M27.737 408.857C30.3076 409.79 33.1315 409.744 35.6704 408.728C38.2092 407.712 40.2856 405.796 41.5036 403.347C42.7216 400.898 42.9962 398.086 42.2749 395.447C41.5537 392.808 39.8871 390.527 37.5928 389.039L36.2865 393.439L35.3603 387.923C35.3511 387.919 35.3416 387.915 35.3319 387.912C33.9569 387.412 32.4969 387.188 31.0352 387.252C29.5735 387.317 28.1389 387.669 26.8133 388.288C25.4877 388.908 24.2972 389.783 23.3096 390.863C22.3221 391.943 21.5571 393.207 21.0581 394.583C20.5592 395.959 20.3362 397.42 20.4018 398.882C20.4675 400.344 20.8206 401.779 21.4408 403.104C22.0611 404.43 22.9364 405.621 24.0167 406.608C25.0971 407.595 26.3612 408.359 27.737 408.857Z" fill="#57B894"/>
<path d="M28.267 406.863C30.8376 407.796 33.6615 407.75 36.2003 406.734C38.7392 405.718 40.8155 403.802 42.0335 401.353C43.2516 398.904 43.5261 396.092 42.8049 393.453C42.0837 390.814 40.417 388.533 38.1227 387.045L36.8165 391.445L35.8902 385.929C35.8811 385.925 35.8716 385.921 35.8619 385.918C34.4872 385.419 33.0277 385.196 31.5668 385.262C30.1059 385.327 28.6722 385.68 27.3475 386.299C24.6722 387.551 22.6034 389.814 21.5962 392.592C20.5891 395.369 20.7261 398.433 21.9771 401.11C23.2281 403.786 25.4906 405.856 28.267 406.863V406.863Z" stroke="#3F3D56" stroke-miterlimit="10"/>
<path d="M16.1432 427.359C16.5852 429.875 17.8786 432.162 19.8063 433.838C21.7341 435.513 24.179 436.474 26.7311 436.56C29.2832 436.646 31.7872 435.852 33.8233 434.31C35.8593 432.768 37.3035 430.573 37.9137 428.092C38.5239 425.612 38.263 422.997 37.1746 420.686C36.0863 418.375 34.2368 416.508 31.9363 415.4C29.6357 414.291 27.0241 414.007 24.5394 414.596C22.0546 415.185 19.8479 416.611 18.2892 418.635L23.2509 426.106L16.4714 422.14C15.9457 423.828 15.8332 425.618 16.1432 427.359Z" fill="#57B894"/>
<path d="M16.6017 425.882C17.0437 428.398 18.3371 430.686 20.2648 432.361C22.1926 434.036 24.6375 434.998 27.1896 435.084C29.7417 435.17 32.2457 434.375 34.2818 432.833C36.3178 431.291 37.762 429.096 38.3722 426.616C38.9824 424.135 38.7215 421.52 37.6331 419.209C36.5448 416.898 34.6953 415.032 32.3947 413.923C30.0942 412.814 27.4826 412.531 24.9978 413.12C22.5131 413.709 20.3064 415.135 18.7477 417.158L23.7094 424.629L16.9299 420.664C16.4042 422.352 16.2917 424.142 16.6017 425.882V425.882Z" stroke="#3F3D56" stroke-miterlimit="10"/>
<path d="M391.689 277.923C399.336 277.923 405.534 269.898 405.534 259.998C405.534 250.099 399.336 242.074 391.689 242.074C384.043 242.074 377.844 250.099 377.844 259.998C377.844 269.898 384.043 277.923 391.689 277.923Z" fill="#2F2E41"/>
<path d="M467.023 278.33C474.669 278.33 480.868 270.305 480.868 260.406C480.868 250.506 474.669 242.481 467.023 242.481C459.376 242.481 453.178 250.506 453.178 260.406C453.178 270.305 459.376 278.33 467.023 278.33Z" fill="#2F2E41"/>
<path d="M456.435 313.364C456.435 321.463 445.131 328.03 431.188 328.03C417.245 328.03 405.941 321.463 405.941 313.364C405.941 306.349 414.419 300.483 425.748 299.049C427.552 298.811 429.369 298.694 431.188 298.699C434.237 298.689 437.277 299.017 440.253 299.676C449.716 301.787 456.435 307.123 456.435 313.364Z" fill="#2F2E41"/>
<path d="M394.947 273.849C402.594 273.849 408.792 265.824 408.792 255.924C408.792 246.025 402.594 238 394.947 238C387.301 238 381.102 246.025 381.102 255.924C381.102 265.824 387.301 273.849 394.947 273.849Z" stroke="#3F3D56" stroke-miterlimit="10"/>
<path d="M470.28 274.256C477.926 274.256 484.125 266.231 484.125 256.332C484.125 246.433 477.926 238.407 470.28 238.407C462.634 238.407 456.435 246.433 456.435 256.332C456.435 266.231 462.634 274.256 470.28 274.256Z" stroke="#3F3D56" stroke-miterlimit="10"/>
<path d="M434.446 323.956C448.389 323.956 459.693 317.39 459.693 309.29C459.693 301.191 448.389 294.625 434.446 294.625C420.503 294.625 409.199 301.191 409.199 309.29C409.199 317.39 420.503 323.956 434.446 323.956Z" stroke="#3F3D56" stroke-miterlimit="10"/>
<path d="M440.554 300.898C440.561 301.923 440.176 302.911 439.479 303.662C439.15 304.022 438.75 304.309 438.304 304.506C437.858 304.704 437.377 304.807 436.889 304.809H428.745C427.742 304.774 426.793 304.343 426.106 303.61C425.419 302.878 425.05 301.902 425.08 300.898C425.076 300.104 425.309 299.326 425.748 298.665C427.55 298.411 429.368 298.286 431.188 298.291C434.24 298.281 437.283 298.631 440.253 299.334C440.454 299.831 440.556 300.362 440.554 300.898Z" fill="white"/>
<path d="M394.947 255.11C397.196 255.11 399.019 253.286 399.019 251.036C399.019 248.786 397.196 246.962 394.947 246.962C392.698 246.962 390.875 248.786 390.875 251.036C390.875 253.286 392.698 255.11 394.947 255.11Z" fill="white"/>
<path d="M470.687 255.11C472.936 255.11 474.759 253.286 474.759 251.036C474.759 248.786 472.936 246.962 470.687 246.962C468.438 246.962 466.615 248.786 466.615 251.036C466.615 253.286 468.438 255.11 470.687 255.11Z" fill="white"/>
<path opacity="0.3" d="M474.76 293.403C477.008 293.403 478.832 291.579 478.832 289.329C478.832 287.079 477.008 285.255 474.76 285.255C472.511 285.255 470.688 287.079 470.688 289.329C470.688 291.579 472.511 293.403 474.76 293.403Z" fill="#5843E4"/>
<path opacity="0.3" d="M375.401 293.403C377.65 293.403 379.473 291.579 379.473 289.329C379.473 287.079 377.65 285.255 375.401 285.255C373.152 285.255 371.329 287.079 371.329 289.329C371.329 291.579 373.152 293.403 375.401 293.403Z" fill="#5843E4"/>
</g>
<defs>
<clipPath id="clip0_155_165">
<rect width="875" height="476" fill="white"/>
</clipPath>
</defs>
</svg>
